<svg width="87" height="36" viewBox="0 0 87 36" fill="none" xmlns="http://www.w3.org/2000/svg">
<path d="M0 28.1575L3.14748 25.914L1.48413 25.1482L0 28.1575Z" fill="#6D6D6D"/>
<path d="M2.53113 23.2553L7.00033 25.7469L4.76573 18.5471L2.53113 23.2553Z" fill="#6D6D6D"/>
<path d="M23.1525 14.5347C22.8113 14.9217 22.6352 15.419 22.6597 15.9261C22.6424 16.429 22.8178 16.9204 23.1525 17.3067C23.3101 17.4826 23.5066 17.6223 23.7276 17.7156C23.9485 17.8089 24.1883 17.8535 24.4294 17.846C24.6637 17.8512 24.8962 17.8054 25.1095 17.7121C25.3228 17.6187 25.5115 17.4801 25.6615 17.3067C25.9993 16.9323 26.1773 16.4487 26.16 15.9531C26.1828 15.4438 26.0093 14.9444 25.6727 14.5509C25.5216 14.3774 25.3319 14.2388 25.1177 14.1455C24.9034 14.0521 24.6701 14.0063 24.435 14.0116C24.1932 14.0052 23.953 14.0503 23.7313 14.1435C23.5096 14.2367 23.312 14.3758 23.1525 14.5509" fill="#6D6D6D"/>
<path d="M26.4987 16.0821V15.8348C26.4987 14.7287 25.602 13.832 24.4959 13.832C23.3898 13.832 22.4931 14.7287 22.4931 15.8348V16.0821C22.4931 17.1882 23.3898 18.0849 24.4959 18.0849C25.602 18.0849 26.4987 17.1882 26.4987 16.0821Z" fill="#6D6D6D"/>
<path d="M15.1215 14.5347C14.7735 14.9082 14.5906 15.3978 14.6119 15.8991C14.5889 16.4138 14.7712 16.9174 15.1215 17.3067C15.4829 17.6432 15.9658 17.8312 16.4684 17.8312C16.971 17.8312 17.454 17.6432 17.8153 17.3067C18.165 16.9216 18.3457 16.4208 18.3194 15.9099C18.3457 15.399 18.165 14.8982 17.8153 14.5131C17.4573 14.1748 16.9757 13.9854 16.474 13.9854C15.9724 13.9854 15.4908 14.1748 15.1327 14.5131" fill="#6D6D6D"/>
<path d="M18.3548 16.0019V15.8015C18.3548 14.7057 17.4665 13.8174 16.3707 13.8174C15.275 13.8174 14.3867 14.7057 14.3867 15.8015V16.0019C14.3867 17.0977 15.275 17.986 16.3707 17.986C17.4665 17.986 18.3548 17.0977 18.3548 16.0019Z" fill="#6D6D6D"/>
<path d="M14.1021 18.1642C13.7908 17.8652 13.5463 17.5082 13.3836 17.115C13.2208 16.7217 13.1432 16.3006 13.1556 15.8775C13.149 15.4657 13.2312 15.057 13.397 14.6773C13.5628 14.2976 13.8086 13.9552 14.1189 13.6717C14.752 13.0861 15.5959 12.759 16.4739 12.759C17.3518 12.759 18.1957 13.0861 18.8289 13.6717C19.4379 14.2756 19.7785 15.0843 19.7785 15.926C19.7785 16.7678 19.4379 17.5765 18.8289 18.1803C18.5148 18.4764 18.1425 18.7091 17.7338 18.8647C17.325 19.0203 16.8881 19.0957 16.4487 19.0864C16.0136 19.0963 15.581 19.0195 15.1781 18.8608C14.7753 18.7021 14.4108 18.4649 14.1077 18.1642H14.1021ZM11.2626 9.57839V12.9221H12.3827V14.2164H11.2626V18.9246H9.8289V14.2164H9.21284V12.9221H9.8289V10.5653L5.64532 13.429L12.6291 34.3434L29.6827 22.6997L27.6105 16.3575C27.5551 17.0377 27.2699 17.6818 26.7984 18.1911C26.5462 18.467 26.2367 18.6889 25.8899 18.8423C25.5431 18.9958 25.1667 19.0775 24.785 19.082C24.4034 19.0866 24.025 19.014 23.6743 18.8689C23.3236 18.7238 23.0085 18.5094 22.7492 18.2397V22.1604H21.3099V12.9221H22.7492V13.5747C22.9958 13.3197 23.2939 13.1159 23.6252 12.9758C23.9565 12.8358 24.314 12.7624 24.6758 12.7603C25.0551 12.752 25.432 12.8212 25.7814 12.9634C26.1309 13.1057 26.4451 13.3177 26.7032 13.5854L22.8109 1.66675L11.2626 9.57839Z" fill="#6D6D6D"/>
<path d="M0 28.1575L3.14748 25.914L1.48413 25.1482L0 28.1575Z" fill="#6D6D6D"/>
<path d="M2.53113 23.2553L7.00033 25.7469L4.76573 18.5471L2.53113 23.2553Z" fill="#6D6D6D"/>
<path d="M41.5 23.8011L46.3004 12.116H48.5726L53.3731 23.8011H50.7969L49.7728 21.1989H45.0363L44.0122 23.8011H41.5ZM45.9164 18.9448H48.8927L47.4045 15.1823L45.9164 18.9448Z" fill="#444444"/>
<path d="M56.2725 23.8011V14.5525H52.8642V12.1989H62.145V14.5525H58.7367V23.8011H56.2725Z" fill="#444444"/>
<path d="M73.7371 22.2597C72.6063 23.4199 71.1875 24 69.4807 24C67.7739 24 66.3551 23.4199 65.2243 22.2597C64.1042 21.0994 63.5441 19.6796 63.5441 18C63.5441 16.3315 64.1095 14.9171 65.2403 13.7569C66.3817 12.5856 67.8059 12 69.5127 12C71.2195 12 72.633 12.5801 73.7531 13.7403C74.8839 14.9006 75.4492 16.3204 75.4492 18C75.4492 19.6685 74.8785 21.0884 73.7371 22.2597ZM67.0805 20.5856C67.7205 21.2928 68.5313 21.6464 69.5127 21.6464C70.4941 21.6464 71.2995 21.2983 71.9289 20.6022C72.5583 19.895 72.873 19.0276 72.873 18C72.873 16.9834 72.553 16.1215 71.9129 15.4144C71.2729 14.7072 70.4621 14.3536 69.4807 14.3536C68.4993 14.3536 67.6939 14.7072 67.0645 15.4144C66.4351 16.1105 66.1204 16.9724 66.1204 18C66.1204 19.0166 66.4404 19.8785 67.0805 20.5856Z" fill="#444444"/>
<path d="M77.6352 23.8011V12.1989H82.2116C83.5344 12.1989 84.5798 12.5691 85.3479 13.3094C86.116 14.0497 86.5 15.0276 86.5 16.2431C86.5 17.5359 86.0733 18.5414 85.2199 19.2597C84.3665 19.9669 83.2837 20.3204 81.9716 20.3204H80.0994V23.8011H77.6352ZM80.0994 18.0497H82.0516C82.6596 18.0497 83.1344 17.884 83.4757 17.5525C83.8278 17.221 84.0038 16.7901 84.0038 16.2597C84.0038 15.6961 83.8278 15.2652 83.4757 14.9669C83.1237 14.6575 82.633 14.5028 82.0036 14.5028H80.0994V18.0497Z" fill="#444444"/>
</svg>
